<?xml version="1.0" encoding="utf-8"?>
<!-- Generator: Adobe Illustrator 16.0.0, SVG Export Plug-In . SVG Version: 6.00 Build 0)  -->
<!DOCTYPE svg PUBLIC "-//W3C//DTD SVG 1.1//EN" "http://www.w3.org/Graphics/SVG/1.1/DTD/svg11.dtd">
<svg version="1.1" id="图层_1" xmlns="http://www.w3.org/2000/svg" xmlns:xlink="http://www.w3.org/1999/xlink" x="0px" y="0px"
	 width="552px" height="222px" viewBox="0 0 552 222" enable-background="new 0 0 552 222" xml:space="preserve">
<g>
	<path id="svg_1" fill="#FFFFFF" d="M195.333,129.283c-0.447,0-0.895,0-1.488-0.148c-6.4-0.744-11.013-6.547-10.269-12.947
		l6.993-57.891c0.447-3.721-1.785-7.293-5.209-8.483l-47.175-16.816c-6.103-2.232-9.228-8.78-7.144-14.882
		c2.231-6.102,8.78-9.227,14.882-7.144l47.175,16.816c13.99,4.911,22.473,18.604,20.688,33.336l-6.994,57.892
		C206.196,124.818,201.136,129.283,195.333,129.283z"/>
	<path id="svg_2" fill="#FFFFFF" d="M104.851,222c-5.209,0-10.416-1.342-15.328-4.02l-61.017-33.932
		c-8.781-4.91-14.733-13.691-15.924-23.662L0.23,59.784C-1.556,45.051,7.225,31.061,21.213,26.15L96.665,0.404
		c6.102-2.083,12.799,1.19,14.882,7.292c2.084,6.103-1.19,12.799-7.292,14.883L28.803,48.324c-3.572,1.191-5.804,4.763-5.357,8.632
		l12.352,100.603c0.298,2.531,1.786,4.762,4.018,6.102l61.016,33.932c2.381,1.34,5.358,1.34,7.739,0l66.075-36.162
		c2.232-1.191,3.871-3.572,4.168-6.104c0.744-6.398,6.548-11.012,12.946-10.268s11.012,6.547,10.27,12.947
		c-1.191,9.971-7.293,18.898-16.072,23.811l-66.076,36.164C115.268,220.658,110.06,222,104.851,222L104.851,222z"/>
	<path fill="#FFFFFF" d="M152.21,78.025c0,0-32.66,42.65-33.26,43.16l0.1,35.92c0.01,6.609-5.33,11.971-11.93,11.99
		c-6.601,0.02-11.97-5.32-11.979-11.93l-0.101-35.871c-0.649-0.539-33.39-43.27-33.39-43.27c-3.67-4.89-2.69-11.83,2.199-15.5
		c1.99-1.5,4.32-2.22,6.641-2.22c3.359,0,6.68,1.53,8.859,4.42l27.58,36.13l27.58-36.13c2.181-2.89,5.5-4.42,8.86-4.42
		c2.32,0,4.649,0.72,6.64,2.22C154.9,66.195,155.88,73.135,152.21,78.025z"/>
</g>
<g>
	<path fill="#FFFFFF" d="M286.253,152.983c0,3.563,0.023,8.906,0.071,16.031s0.072,12.469,0.072,16.031
		c0,1.089,0.083,2.746,0.252,4.973c0.168,2.227,0.252,3.885,0.252,4.973c0,2.127-0.696,3.871-2.088,5.232
		c-1.393,1.36-3.096,2.041-5.111,2.041c-3.696,0-6.047-2.351-7.055-7.051c-6.001,3.216-12.912,4.824-20.734,4.824
		c-6.288,0-11.495-1.436-15.622-4.305c-4.561-3.166-7.271-7.793-8.135-13.879c-1.872-13.111-2.808-24.789-2.808-35.031
		c0-6.778,0.72-14.497,2.16-23.156c0.672-4.305,2.952-6.457,6.839-6.457c2.063,0,3.791,0.681,5.184,2.041
		c1.391,1.361,2.087,3.105,2.087,5.232c0,2.276-0.349,5.913-1.043,10.91c-0.697,4.998-1.044,8.808-1.044,11.43
		c0,8.264,0.263,15.339,0.792,21.227c0.528,5.889,1.32,10.613,2.376,14.176c1.584,0.891,3.143,1.571,4.68,2.041
		c1.535,0.471,3.047,0.705,4.535,0.705c6.431,0,13.222-1.063,20.374-3.191l-0.072-15.066l-0.144-14.398
		c0-10.688,0.455-19.965,1.367-27.832c0.528-4.552,2.855-6.828,6.983-6.828c2.063,0,3.791,0.693,5.184,2.078
		c1.392,1.386,2.039,3.117,1.944,5.195L286.253,152.983z"/>
	<path fill="#FFFFFF" d="M354.384,201.597c-4.128,0-6.455-2.326-6.983-6.977l-2.016-16.254c-0.672-5.789-1.008-11.207-1.008-16.254
		c0-1.385,0.083-3.735,0.252-7.051c0.168-3.314,0.252-5.665,0.252-7.051c0-10.688-1.92-16.031-5.759-16.031
		c-5.376,0-10.511,3.291-15.406,9.871c-4.417,5.987-7.872,13.558-10.367,22.711c-0.097,1.93-0.313,4.354-0.648,7.273
		c-0.287,2.475-0.432,4.874-0.432,7.199c0,1.484,0.145,3.711,0.432,6.68c0.288,2.969,0.433,5.195,0.433,6.68
		c0,2.227-0.66,4.032-1.98,5.418c-1.32,1.385-3.012,2.078-5.075,2.078c-2.112,0-3.815-0.693-5.111-2.078
		c-1.296-1.386-1.943-3.191-1.943-5.418c0-1.484-0.156-3.711-0.469-6.68s-0.468-5.195-0.468-6.68c0-5.096,0.348-12.159,1.044-21.189
		c0.695-9.029,1.044-16.093,1.044-21.189c0-1.583-0.084-3.934-0.252-7.051c-0.169-3.117-0.252-5.467-0.252-7.051
		c0-2.127,0.684-3.871,2.052-5.232c1.368-1.36,3.06-2.041,5.075-2.041c4.416,0,6.84,3.217,7.271,9.648l0.216,8.684
		c8.063-11.083,16.343-16.625,24.838-16.625c7.678,0,13.03,3.488,16.054,10.465c2.063,4.651,3.191,11.529,3.384,20.633v7.496
		l-0.072,6.902c0,4.107,0.516,9.414,1.548,15.92c1.032,6.507,1.548,11.789,1.548,15.846c0,2.177-0.684,3.945-2.052,5.307
		C358.164,200.916,356.447,201.597,354.384,201.597z"/>
	<path fill="#FFFFFF" d="M430.722,136.284c-4.272,5.295-9.743,12.964-16.414,23.008c-7.728,11.678-13.391,19.94-16.99,24.789
		c5.039-0.247,9.431-0.371,13.175-0.371c1.871,0,4.654,0.371,8.351,1.113c3.695,0.742,6.479,1.113,8.352,1.113
		c2.111,0,3.826,0.705,5.147,2.115c1.319,1.41,1.979,3.204,1.979,5.381c0,2.227-0.66,4.032-1.979,5.418
		c-1.321,1.385-3.036,2.078-5.147,2.078c-1.872,0-4.656-0.371-8.352-1.113c-3.696-0.742-6.479-1.113-8.351-1.113
		c-10.799,0-21.047,1.014-30.741,3.043c-1.008,0.197-1.896,0.297-2.663,0.297c-4.656,0-6.983-2.104-6.983-6.309
		c0-2.474,1.199-4.849,3.6-7.125c12.526-11.677,26.156-29.86,40.892-54.551c-6.384,0.396-11.015,0.594-13.895,0.594
		c-7.104,0-14.398-0.568-21.886-1.707c-4.272-0.643-6.407-3.092-6.407-7.348c0-2.177,0.647-3.995,1.943-5.455
		c1.296-1.459,2.927-2.189,4.896-2.189c2.352,0,5.903,0.285,10.655,0.854c4.751,0.569,8.351,0.854,10.799,0.854
		c3.263,0,8.158-0.234,14.687-0.705c6.526-0.47,11.422-0.705,14.687-0.705c4.078,0,6.119,1.732,6.119,5.195
		C436.193,127.452,434.368,131.732,430.722,136.284z"/>
	<path fill="#FFFFFF" d="M501.876,201.226c-0.912,0-2.567-1.089-4.967-3.266c-2.16-2.028-3.769-3.834-4.824-5.418
		c-4.607,2.573-8.663,4.515-12.166,5.826c-3.504,1.311-6.433,1.967-8.783,1.967c-11.23,0-19.414-3.266-24.55-9.797
		c-4.848-6.135-7.271-15.536-7.271-28.203c0-11.974,3.995-22.216,11.986-30.727c7.991-8.51,17.53-12.766,28.617-12.766
		c4.176,0,8.854,1.113,14.038,3.34c6.526,2.771,9.791,6.111,9.791,10.02c0,1.336-0.48,2.523-1.439,3.563
		c-0.48,1.881-0.853,4.973-1.116,9.277c-0.265,4.305-0.421,9.822-0.468,16.551c-0.049,6.136,0.359,10.984,1.224,14.547
		c0.479,2.178,1.991,6.531,4.535,13.063c0.336,0.891,0.888,2.202,1.656,3.934l0.432,1.262c0,1.979-0.672,3.611-2.016,4.898
		C505.212,200.582,503.651,201.226,501.876,201.226z M486.902,149.644c0-2.127,0.131-4.44,0.396-6.939
		c0.264-2.498,0.659-5.158,1.188-7.979c-1.775-0.939-3.3-1.633-4.571-2.078c-1.272-0.445-2.292-0.668-3.06-0.668
		c-7.439,0-13.858,3.13-19.258,9.389c-5.399,6.26-8.099,13.471-8.099,21.635c0,8.115,1.391,14.201,4.175,18.258
		c2.783,4.058,6.959,6.086,12.527,6.086c4.607,0,8.519-0.865,11.734-2.598c1.728-0.939,4.15-2.82,7.271-5.641
		C487.669,165.997,486.902,156.175,486.902,149.644z"/>
	<path fill="#FFFFFF" d="M533.076,162.632c0,2.969,0.083,7.41,0.252,13.322c0.168,5.913,0.252,10.354,0.252,13.322
		c0,2.178-0.647,3.959-1.943,5.344c-1.296,1.386-3,2.078-5.112,2.078c-2.063,0-3.756-0.692-5.075-2.078
		c-1.32-1.385-1.979-3.166-1.979-5.344c0-2.969-0.084-7.409-0.252-13.322c-0.169-5.912-0.252-10.354-0.252-13.322
		c0-4.65,0.239-10.452,0.72-17.404c0.479-6.951,0.72-12.753,0.72-17.404c0-2.227,0.659-4.032,1.98-5.418
		c1.319-1.385,3.011-2.078,5.075-2.078c2.063,0,3.755,0.693,5.075,2.078c1.319,1.386,1.979,3.191,1.979,5.418
		c0,4.651-0.24,10.453-0.72,17.404C533.315,152.18,533.076,157.981,533.076,162.632z M529.837,102.366
		c-2.304,0-4.296-0.841-5.976-2.523c-1.681-1.682-2.52-3.711-2.52-6.086s0.839-4.403,2.52-6.086c1.68-1.682,3.672-2.523,5.976-2.523
		s4.283,0.842,5.938,2.523c1.656,1.683,2.484,3.711,2.484,6.086s-0.828,4.404-2.484,6.086
		C534.12,101.525,532.141,102.366,529.837,102.366z"/>
</g>
</svg>
