<?xml version="1.0" encoding="utf-8"?>
<!-- Generator: Adobe Illustrator 16.0.0, SVG Export Plug-In . SVG Version: 6.00 Build 0)  -->
<!DOCTYPE svg PUBLIC "-//W3C//DTD SVG 1.1//EN" "http://www.w3.org/Graphics/SVG/1.1/DTD/svg11.dtd">
<svg version="1.1" id="图层_1" xmlns="http://www.w3.org/2000/svg" xmlns:xlink="http://www.w3.org/1999/xlink" x="0px" y="0px"
	 width="222px" height="222px" viewBox="0 0 222 222" enable-background="new 0 0 222 222" xml:space="preserve">
<g>
	<path id="svg_1" fill="#FC675F" d="M195.333,129.395c-0.446,0-0.894,0-1.488-0.148c-6.399-0.743-11.013-6.547-10.269-12.946
		l6.994-57.891c0.447-3.721-1.785-7.293-5.209-8.483L138.186,33.11c-6.103-2.232-9.228-8.78-7.144-14.882
		c2.231-6.102,8.78-9.227,14.882-7.144L193.1,27.899c13.989,4.911,22.473,18.604,20.688,33.336l-6.995,57.891
		C206.197,124.931,201.137,129.395,195.333,129.395z"/>
	<path id="svg_2" fill="#14BAFC" d="M104.852,222.111c-5.209,0-10.418-1.341-15.33-4.02L28.506,184.16
		c-8.781-4.91-14.733-13.69-15.924-23.662L0.23,59.896c-1.786-14.733,6.995-28.723,20.983-33.634L96.665,0.516
		c6.103-2.083,12.799,1.19,14.882,7.292c2.084,6.103-1.189,12.799-7.292,14.883L28.803,48.436c-3.572,1.191-5.804,4.763-5.357,8.632
		l12.352,100.603c0.298,2.53,1.786,4.762,4.018,6.102l61.016,33.931c2.381,1.341,5.357,1.341,7.738,0l66.076-36.162
		c2.232-1.19,3.871-3.571,4.168-6.103c0.744-6.399,6.549-11.013,12.947-10.269s11.012,6.548,10.27,12.947
		c-1.191,9.971-7.293,18.899-16.073,23.812l-66.076,36.163C115.268,220.771,110.059,222.111,104.852,222.111L104.852,222.111z"/>
	<path fill="#FC675F" d="M152.21,78.137c0,0-32.66,42.65-33.26,43.16l0.1,35.92c0.01,6.61-5.33,11.971-11.93,11.99
		c-6.601,0.02-11.97-5.32-11.979-11.93l-0.101-35.87c-0.649-0.54-33.39-43.271-33.39-43.271c-3.67-4.89-2.69-11.83,2.199-15.5
		c1.99-1.5,4.32-2.22,6.641-2.22c3.359,0,6.68,1.53,8.859,4.42l27.58,36.13l27.58-36.13c2.181-2.89,5.5-4.42,8.86-4.42
		c2.32,0,4.649,0.72,6.64,2.22C154.9,66.307,155.88,73.247,152.21,78.137z"/>
</g>
</svg>
