<?xml version="1.0" encoding="utf-8"?>
<!-- Generator: Adobe Illustrator 16.0.0, SVG Export Plug-In . SVG Version: 6.00 Build 0)  -->
<!DOCTYPE svg PUBLIC "-//W3C//DTD SVG 1.1//EN" "http://www.w3.org/Graphics/SVG/1.1/DTD/svg11.dtd">
<svg version="1.1" id="图层_1" xmlns="http://www.w3.org/2000/svg" xmlns:xlink="http://www.w3.org/1999/xlink" x="0px" y="0px"
	 width="512px" height="512px" viewBox="0 0 512 512" enable-background="new 0 0 512 512" xml:space="preserve">
<g>
	<path id="svg_1" fill="#FC675F" d="M332.273,272.504c-0.385,0-0.771,0-1.284-0.127c-5.522-0.642-9.503-5.65-8.86-11.173
		l6.035-49.952c0.386-3.211-1.54-6.293-4.495-7.32l-40.707-14.51c-5.266-1.926-7.961-7.577-6.164-12.842
		c1.927-5.265,7.577-7.962,12.841-6.165l40.708,14.511c12.071,4.237,19.391,16.052,17.851,28.765l-6.036,49.953
		C341.648,268.653,337.282,272.504,332.273,272.504z"/>
	<path id="svg_2" fill="#14BAFC" d="M254.199,352.508c-4.495,0-8.989-1.157-13.228-3.468l-52.649-29.28
		c-7.577-4.237-12.712-11.813-13.74-20.416l-10.658-86.809c-1.541-12.713,6.036-24.784,18.106-29.022l65.106-22.215
		c5.266-1.797,11.043,1.027,12.841,6.292c1.798,5.266-1.027,11.044-6.292,12.842l-65.106,22.215
		c-3.082,1.028-5.008,4.11-4.623,7.449l10.658,86.808c0.258,2.184,1.542,4.108,3.468,5.265l52.649,29.278
		c2.054,1.156,4.623,1.156,6.677,0l57.016-31.203c1.926-1.027,3.34-3.082,3.597-5.267c0.642-5.521,5.65-9.502,11.172-8.859
		c5.521,0.643,9.501,5.649,8.861,11.171c-1.027,8.604-6.293,16.309-13.869,20.547l-57.017,31.205
		C263.187,351.351,258.691,352.508,254.199,352.508L254.199,352.508z"/>
	<path fill="#FC675F" d="M295.063,228.275c0,0-28.181,36.802-28.699,37.242l0.086,30.995c0.009,5.703-4.599,10.328-10.294,10.346
		c-5.695,0.017-10.328-4.592-10.336-10.294l-0.087-30.952c-0.561-0.466-28.811-37.337-28.811-37.337
		c-3.167-4.22-2.322-10.208,1.897-13.375c1.717-1.294,3.728-1.916,5.73-1.916c2.899,0,5.764,1.32,7.645,3.814l23.799,31.176
		l23.797-31.176c1.882-2.494,4.746-3.814,7.646-3.814c2.001,0,4.012,0.622,5.729,1.916
		C297.386,218.067,298.231,224.056,295.063,228.275z"/>
</g>
</svg>
